<?xml version="1.0" encoding="utf-8"?>
<!-- Svg Vector Icons : http://www.onlinewebfonts.com/icon -->
<!DOCTYPE svg PUBLIC "-//W3C//DTD SVG 1.1//EN" "http://www.w3.org/Graphics/SVG/1.1/DTD/svg11.dtd">
<svg version="1.1" xmlns="http://www.w3.org/2000/svg" xmlns:xlink="http://www.w3.org/1999/xlink" x="0px" y="0px" viewBox="0 0 256 256" enable-background="new 0 0 256 256" xml:space="preserve">
<metadata> Svg Vector Icons : http://www.onlinewebfonts.com/icon </metadata>
<g><g><path fill="#000000" d="M58.6,44.7C31.7,44.7,10,66.5,10,93.3s21.7,48.6,48.6,48.6c26.8,0,48.6-21.7,48.6-48.6C107.2,66.5,85.4,44.7,58.6,44.7z M58.6,114.1c-11.5,0-20.8-9.3-20.8-20.8s9.3-20.8,20.8-20.8c11.5,0,20.8,9.3,20.8,20.8C79.4,104.8,70.1,114.1,58.6,114.1z M190.5,183.5c-15.3,0-27.8-12.4-27.8-27.8v-55.5c0-15.3,12.4-27.8,27.8-27.8s27.8,12.4,27.8,27.8H246c0-30.7-24.9-55.5-55.5-55.5c-30.7,0-55.5,24.9-55.5,55.5v55.5c0,30.7,24.9,55.5,55.5,55.5c30.7,0,55.5-24.9,55.5-55.5h-27.8C218.2,171.1,205.8,183.5,190.5,183.5z"/></g></g>
</svg>