<?xml version="1.0" encoding="utf-8"?>
<!-- Svg Vector Icons : http://www.onlinewebfonts.com/icon -->
<!DOCTYPE svg PUBLIC "-//W3C//DTD SVG 1.1//EN" "http://www.w3.org/Graphics/SVG/1.1/DTD/svg11.dtd">
<svg version="1.1" xmlns="http://www.w3.org/2000/svg" xmlns:xlink="http://www.w3.org/1999/xlink" x="0px" y="0px" viewBox="0 0 256 256" enable-background="new 0 0 256 256" xml:space="preserve">
<metadata> Svg Vector Icons : http://www.onlinewebfonts.com/icon </metadata>
<g><g><path fill="#000000" d="M79.2,47.1c-3.7-3.5-8-6.2-12.9-8.3c-5-2-10.2-3-15.8-3c-5.6,0-10.9,1-15.8,3c-4.9,2-9.2,4.8-12.9,8.3c-3.7,3.5-6.6,7.6-8.7,12.4c-2.1,4.7-3.1,9.7-3.1,15c0,5.3,1.1,10.3,3.1,15c2.1,4.7,5,8.9,8.7,12.4c3.7,3.5,8,6.3,12.9,8.3c4.9,2,10.2,3,15.8,3c5.6,0,10.9-1,15.8-3c4.9-2,9.2-4.8,12.9-8.3c3.7-3.5,6.6-7.6,8.6-12.4c2.1-4.7,3.2-9.7,3.2-15c0-5.3-1.1-10.3-3.2-15C85.8,54.7,82.9,50.6,79.2,47.1z M63.4,86.8c-3.5,3.5-7.9,5.3-12.9,5.3s-9.4-1.8-12.9-5.3c-3.5-3.5-5.3-7.6-5.3-12.4c0-4.9,1.8-9.1,5.3-12.5c3.5-3.4,7.9-5.1,12.9-5.1s9.4,1.7,12.9,5.1c3.5,3.4,5.3,7.6,5.3,12.5C68.7,79.2,66.9,83.3,63.4,86.8z M246,71.3V38.9H121v181.3h36v-73.9h76V114h-76V71.3L246,71.3z"/></g></g>
</svg>